<?xml version="1.0" encoding="UTF-8" standalone="no"?>
<!-- Created with Inkscape (http://www.inkscape.org/) -->

<svg
   width="210mm"
   height="297mm"
   viewBox="0 0 210 297"
   version="1.1"
   id="svg1"
   xml:space="preserve"
   inkscape:version="1.3 (0e150ed6c4, 2023-07-21)"
   sodipodi:docname="TagTest.svg"
   xmlns:inkscape="http://www.inkscape.org/namespaces/inkscape"
   xmlns:sodipodi="http://sodipodi.sourceforge.net/DTD/sodipodi-0.dtd"
   xmlns="http://www.w3.org/2000/svg"
   xmlns:svg="http://www.w3.org/2000/svg"><sodipodi:namedview
     id="namedview1"
     pagecolor="#ffffff"
     bordercolor="#666666"
     borderopacity="1.0"
     inkscape:showpageshadow="2"
     inkscape:pageopacity="0.0"
     inkscape:pagecheckerboard="0"
     inkscape:deskcolor="#d1d1d1"
     inkscape:document-units="mm"
     inkscape:zoom="0.54119318"
     inkscape:cx="95.160105"
     inkscape:cy="553.40682"
     inkscape:window-width="2560"
     inkscape:window-height="1411"
     inkscape:window-x="2391"
     inkscape:window-y="-9"
     inkscape:window-maximized="1"
     inkscape:current-layer="layer1" /><defs
     id="defs1" /><g
     inkscape:label="Layer 1"
     inkscape:groupmode="layer"
     id="layer1"><path
       style="fill:#000000;stroke-width:0.999998"
       d="M 55,75.000006 V 25 h 50 50 V 75.000006 125.00001 H 105 55 Z m 62.57669,31.288344 v -6.28834 H 123.78835 130 V 93.788353 87.576694 H 117.5 105 V 75.000006 62.423317 h 6.28835 6.28834 V 49.923316 37.423314 H 111.28835 105 v 6.288345 6.288344 h -6.288346 -6.28834 v -6.288344 -6.288345 h -12.5 -12.5 v 6.288345 6.288344 H 73.711654 80 v 12.500001 12.500002 h -6.288346 -6.28834 v 6.288341 6.288347 H 73.711654 80 v 6.211659 6.211657 h 6.211654 6.21166 V 93.788353 87.576694 H 98.711654 105 v 12.499996 12.5 h 6.28835 6.28834 z M 80,81.288347 v -6.288341 h 6.211654 6.21166 v 6.288341 6.288347 H 86.211654 80 Z M 142.57669,49.923316 V 37.423314 H 136.28835 130 v 12.500002 12.500001 h 6.28835 6.28834 z"
       id="path1" /><text
       xml:space="preserve"
       style="font-style:normal;font-variant:normal;font-weight:normal;font-stretch:normal;font-size:7.05556px;line-height:1.25;font-family:Roboto;-inkscape-font-specification:Roboto;font-variant-ligatures:normal;font-variant-caps:normal;font-variant-numeric:normal;font-feature-settings:normal;text-align:center;letter-spacing:0px;word-spacing:0px;writing-mode:lr-tb;text-anchor:middle;fill:#000000;fill-opacity:1;stroke:none;stroke-width:0.264583"
       x="105"
       y="22.5"
       id="text1"><tspan
         sodipodi:role="line"
         id="tspan1"
         x="105"
         y="22.5"
         style="stroke-width:0.264583">ID 0, 10cm</tspan></text><text
       xml:space="preserve"
       style="font-style:normal;font-variant:normal;font-weight:normal;font-stretch:normal;font-size:7.05556px;line-height:1.25;font-family:Roboto;-inkscape-font-specification:Roboto;font-variant-ligatures:normal;font-variant-caps:normal;font-variant-numeric:normal;font-feature-settings:normal;text-align:center;letter-spacing:0px;word-spacing:0px;writing-mode:lr-tb;text-anchor:middle;fill:#000000;fill-opacity:1;stroke:none;stroke-width:0.264583"
       x="62.42421"
       y="217.54019"
       id="text1-4"><tspan
         sodipodi:role="line"
         id="tspan1-4"
         x="62.42421"
         y="217.54019"
         style="stroke-width:0.264583">ID 1, 7.5cm</tspan></text><text
       xml:space="preserve"
       style="font-style:normal;font-variant:normal;font-weight:normal;font-stretch:normal;font-size:7.05556px;line-height:1.25;font-family:Roboto;-inkscape-font-specification:Roboto;font-variant-ligatures:normal;font-variant-caps:normal;font-variant-numeric:normal;font-feature-settings:normal;text-align:center;letter-spacing:0px;word-spacing:0px;writing-mode:lr-tb;text-anchor:middle;fill:#000000;fill-opacity:1;stroke:none;stroke-width:0.264583"
       x="147.42421"
       y="217.58498"
       id="text1-4-8"><tspan
         sodipodi:role="line"
         id="tspan1-4-3"
         x="147.42421"
         y="217.58498"
         style="stroke-width:0.264583">ID 3, 7.5cm</tspan></text><text
       xml:space="preserve"
       style="font-style:normal;font-variant:normal;font-weight:normal;font-stretch:normal;font-size:7.05556px;line-height:1.25;font-family:Roboto;-inkscape-font-specification:Roboto;font-variant-ligatures:normal;font-variant-caps:normal;font-variant-numeric:normal;font-feature-settings:normal;text-align:center;letter-spacing:0px;word-spacing:0px;writing-mode:lr-tb;text-anchor:middle;fill:#000000;fill-opacity:1;stroke:none;stroke-width:0.264583"
       x="97.42421"
       y="250.08496"
       id="text1-4-3"><tspan
         sodipodi:role="line"
         id="tspan1-4-7"
         x="97.42421"
         y="250.08496"
         style="stroke-width:0.264583">ID 2,  5cm</tspan></text><text
       xml:space="preserve"
       style="font-style:normal;font-variant:normal;font-weight:normal;font-stretch:normal;font-size:7.05556px;line-height:1.25;font-family:Roboto;-inkscape-font-specification:Roboto;font-variant-ligatures:normal;font-variant-caps:normal;font-variant-numeric:normal;font-feature-settings:normal;text-align:center;letter-spacing:0px;word-spacing:0px;writing-mode:lr-tb;text-anchor:middle;fill:#000000;fill-opacity:1;stroke:none;stroke-width:0.264583"
       x="112.42421"
       y="260.97107"
       id="text1-4-3-2"><tspan
         sodipodi:role="line"
         id="tspan1-4-7-7"
         x="112.42421"
         y="260.97107"
         style="stroke-width:0.264583">ID 4,  5cm</tspan></text><path
       style="fill:#000000;stroke-width:1"
       d="m 25,172.50001 v -37.5 H 62.500002 100 v 37.5 37.5 H 62.500002 25 Z m 37.500002,23.46626 v -4.71626 h 4.716259 4.716255 v -4.65874 -4.65874 h -4.716255 -4.716259 v -4.71626 -4.71626 h 4.716259 4.716255 v -4.71626 -4.71626 h 9.375 9.374999 v -4.65873 -4.65875 H 85.96626 81.250001 v -4.71625 -4.71626 h -9.375 -9.374999 v 9.375 9.37499 h -4.716259 -4.716257 v -9.37499 -9.375 h -9.375001 -9.375 v 4.71626 4.71625 h 4.716258 4.716258 v 4.65875 4.65873 h -4.716258 -4.716258 v 4.71626 4.71626 h 4.716258 4.716258 v 4.71626 4.71626 h -4.716258 -4.716258 v 4.65874 4.65874 h 4.716258 4.716258 v -4.65874 -4.65874 h 4.658742 4.658743 v 9.375 9.375 h 4.716257 4.716259 z m 28.182513,-4.65874 v -9.375 H 85.96626 81.250001 v 9.375 9.375 h 4.716259 4.716255 z"
       id="path2" /><path
       style="fill:#000000;stroke-width:1"
       d="m 25,247 v -25 h 25 25 v 25 25 H 50 25 Z m 37.49999,15.64417 V 259.5 h -3.10582 -3.10583 v -3.10583 -3.10583 H 53.14417 50 V 250.14417 247 h -3.14418 -3.14417 v 3.14417 3.14417 H 46.85582 50 v 3.10583 3.10583 h -3.14418 -3.14417 v 3.14417 3.14417 h 9.39417 9.39417 z m 6.28835,-12.5 V 247 h -3.14417 -3.14418 v 3.14417 3.14417 h 3.14418 3.14417 z M 37.5,243.85583 v -3.14417 h 3.10582 3.10583 v -6.25 -6.25 h -6.25 -6.25 V 231.35583 234.5 H 34.35582 37.5 v 3.10583 3.10583 H 34.35582 31.21165 V 243.85583 247 H 34.35582 37.5 Z m 24.99999,-6.25 V 234.5 h 3.14418 3.14417 v -3.14417 -3.14417 H 59.39417 50 v 3.14417 3.14417 h 3.14417 3.14417 v 3.10583 3.10583 h 3.10583 3.10582 z"
       id="path3" /><path
       style="fill:#000000;stroke-width:0.999999"
       d="m 110,172.50001 v -37.5 h 37.5 37.5 v 37.5 37.5 H 147.5 110 Z m 37.5,23.46624 v -4.71624 h -4.71627 -4.71624 v -4.65876 -4.65873 h 4.71624 4.71627 v -4.71624 -4.71627 h 9.375 9.375 v 4.71627 4.71624 h -4.65873 -4.65876 v 4.65873 4.65876 h 4.65876 4.65873 v -4.65876 -4.65873 h 4.71627 4.71624 V 163.12501 144.3175 H 170.96627 166.25 v 4.71624 4.71627 h -9.375 -9.375 v -4.71627 -4.71624 h -14.09124 -14.09127 v 4.71624 4.71627 H 133.40876 147.5 v 9.375 9.375 h -4.71627 -4.71624 v 4.71627 4.71624 H 133.40876 128.75 v -9.43251 -9.43251 h -4.71624 -4.71627 v 14.09124 14.09127 h 4.71627 4.71624 v 4.71624 4.71627 h 9.375 9.375 z"
       id="path4" /><path
       style="fill:#000000;stroke-width:1"
       d="m 135,247 v -25 h 25 25 v 25 25 h -25 -25 z m 12.5,12.53834 v -6.25 h -3.14417 -3.14417 v 6.25 6.25 h 3.14417 3.14417 z m 25,3.10583 V 259.5 h -3.10583 -3.10582 v 3.14417 3.14417 h 3.10582 3.10583 z m -12.5,-12.5 V 247 h 3.14417 3.14418 v 3.14417 3.14417 H 169.39417 172.5 V 250.14417 247 h 3.14418 3.14417 v -3.14417 -3.14418 h -6.25 -6.25 V 237.60583 234.5 h 3.10582 3.10583 v -3.14417 -3.14418 h -3.10583 -3.10582 V 231.35583 234.5 H 163.14417 160 v -3.14417 -3.14418 h -9.39417 -9.39417 V 237.60583 247 h 3.14417 3.14417 v -3.14417 -3.14418 h 3.10583 3.10583 V 247 253.28834 H 156.85583 160 Z"
       id="path5" /></g></svg>
